<mxfile host="app.diagrams.net" agent="Mozilla/5.0 (Windows NT 10.0; Win64; x64) AppleWebKit/537.36 (KHTML, like Gecko) Chrome/137.0.0.0 Safari/537.36" version="27.1.3">
  <diagram name="Page-1" id="kHL9fatmjpfbWwpX22Xk">
    <mxGraphModel dx="1042" dy="562" grid="1" gridSize="10" guides="1" tooltips="1" connect="1" arrows="1" fold="1" page="1" pageScale="1" pageWidth="827" pageHeight="1169" math="0" shadow="0">
      <root>
        <mxCell id="0" />
        <mxCell id="1" parent="0" />
        <mxCell id="X3lawsHPaKT7ZxOj8mqJ-5" style="edgeStyle=orthogonalEdgeStyle;rounded=0;orthogonalLoop=1;jettySize=auto;html=1;entryX=0.5;entryY=0;entryDx=0;entryDy=0;" edge="1" parent="1" source="X3lawsHPaKT7ZxOj8mqJ-1" target="X3lawsHPaKT7ZxOj8mqJ-2">
          <mxGeometry relative="1" as="geometry" />
        </mxCell>
        <mxCell id="X3lawsHPaKT7ZxOj8mqJ-6" value="volume monté dans Logstash" style="edgeLabel;html=1;align=center;verticalAlign=middle;resizable=0;points=[];" vertex="1" connectable="0" parent="X3lawsHPaKT7ZxOj8mqJ-5">
          <mxGeometry x="-0.18" y="-3" relative="1" as="geometry">
            <mxPoint as="offset" />
          </mxGeometry>
        </mxCell>
        <mxCell id="X3lawsHPaKT7ZxOj8mqJ-1" value="network_security_logs.csv" style="rounded=1;whiteSpace=wrap;html=1;" vertex="1" parent="1">
          <mxGeometry x="50" y="60" width="180" height="60" as="geometry" />
        </mxCell>
        <mxCell id="X3lawsHPaKT7ZxOj8mqJ-7" value="" style="edgeStyle=orthogonalEdgeStyle;rounded=0;orthogonalLoop=1;jettySize=auto;html=1;" edge="1" parent="1" source="X3lawsHPaKT7ZxOj8mqJ-2" target="X3lawsHPaKT7ZxOj8mqJ-3">
          <mxGeometry relative="1" as="geometry" />
        </mxCell>
        <mxCell id="X3lawsHPaKT7ZxOj8mqJ-8" value="data transformée JSON" style="edgeLabel;html=1;align=center;verticalAlign=middle;resizable=0;points=[];" vertex="1" connectable="0" parent="X3lawsHPaKT7ZxOj8mqJ-7">
          <mxGeometry x="-0.224" y="-4" relative="1" as="geometry">
            <mxPoint x="14" as="offset" />
          </mxGeometry>
        </mxCell>
        <mxCell id="X3lawsHPaKT7ZxOj8mqJ-2" value="&lt;div&gt;Logstash&lt;/div&gt;&lt;div&gt;&lt;span style=&quot;background-color: transparent; color: light-dark(rgb(0, 0, 0), rgb(255, 255, 255));&quot;&gt;(logstash.conf)&lt;/span&gt;&lt;/div&gt;" style="rounded=1;whiteSpace=wrap;html=1;" vertex="1" parent="1">
          <mxGeometry x="90" y="160" width="100" height="60" as="geometry" />
        </mxCell>
        <mxCell id="X3lawsHPaKT7ZxOj8mqJ-9" value="" style="edgeStyle=orthogonalEdgeStyle;rounded=0;orthogonalLoop=1;jettySize=auto;html=1;" edge="1" parent="1" source="X3lawsHPaKT7ZxOj8mqJ-3" target="X3lawsHPaKT7ZxOj8mqJ-4">
          <mxGeometry relative="1" as="geometry" />
        </mxCell>
        <mxCell id="X3lawsHPaKT7ZxOj8mqJ-10" value="lecture des données indexées" style="edgeLabel;html=1;align=center;verticalAlign=middle;resizable=0;points=[];" vertex="1" connectable="0" parent="X3lawsHPaKT7ZxOj8mqJ-9">
          <mxGeometry x="0.22" y="-3" relative="1" as="geometry">
            <mxPoint x="13" y="-4" as="offset" />
          </mxGeometry>
        </mxCell>
        <mxCell id="X3lawsHPaKT7ZxOj8mqJ-3" value="&lt;div&gt;Elasticsearch&lt;/div&gt;&lt;div&gt;&lt;span style=&quot;background-color: transparent; color: light-dark(rgb(0, 0, 0), rgb(255, 255, 255));&quot;&gt;(indexation)&lt;/span&gt;&lt;/div&gt;" style="rounded=1;whiteSpace=wrap;html=1;" vertex="1" parent="1">
          <mxGeometry x="85" y="270" width="110" height="60" as="geometry" />
        </mxCell>
        <mxCell id="X3lawsHPaKT7ZxOj8mqJ-4" value="&lt;div&gt;Kibana&lt;/div&gt;&lt;div&gt;&lt;span style=&quot;background-color: transparent; color: light-dark(rgb(0, 0, 0), rgb(255, 255, 255));&quot;&gt;(visualise)&amp;nbsp;&lt;/span&gt;&lt;/div&gt;" style="rounded=1;whiteSpace=wrap;html=1;" vertex="1" parent="1">
          <mxGeometry x="85" y="370" width="110" height="60" as="geometry" />
        </mxCell>
      </root>
    </mxGraphModel>
  </diagram>
</mxfile>
